<svg width="39" height="38" viewBox="0 0 39 38" fill="none" xmlns="http://www.w3.org/2000/svg">
<g clip-path="url(#clip0_0_54)">
<rect x="0.693481" width="38" height="38" rx="19" fill="#DB0000"/>
<path d="M8.29468 21.1319H4.43921V19.3506H8.29468V21.1319ZM13.1345 23.8917C12.0447 23.8917 11.1697 23.6631 10.5095 23.2061C9.84937 22.7452 9.51929 22.1397 9.51929 21.3897C9.51929 20.8194 9.71069 20.337 10.0935 19.9424C10.4802 19.544 10.9822 19.3057 11.5994 19.2276V19.1866C11.0837 19.085 10.6638 18.8565 10.3396 18.501C10.0193 18.1456 9.85913 17.7296 9.85913 17.253C9.85913 16.6006 10.1638 16.0655 10.7732 15.6475C11.3865 15.2256 12.1736 15.0147 13.1345 15.0147C14.0994 15.0147 14.8865 15.2256 15.4958 15.6475C16.1052 16.0694 16.4099 16.6065 16.4099 17.2589C16.4099 17.7276 16.2498 18.1417 15.9294 18.501C15.6091 18.8565 15.1931 19.085 14.6814 19.1866V19.2276C15.2986 19.3096 15.7986 19.5499 16.1814 19.9483C16.5642 20.3428 16.7556 20.8253 16.7556 21.3956C16.7556 22.1417 16.4216 22.7452 15.7537 23.2061C15.0896 23.6631 14.2166 23.8917 13.1345 23.8917ZM13.1345 22.4151C13.5369 22.4151 13.865 22.3038 14.1189 22.0811C14.3728 21.8546 14.4998 21.5714 14.4998 21.2315C14.4998 20.8917 14.3728 20.6104 14.1189 20.3878C13.865 20.1651 13.5369 20.0538 13.1345 20.0538C12.7361 20.0538 12.4099 20.1651 12.156 20.3878C11.9021 20.6104 11.7751 20.8917 11.7751 21.2315C11.7751 21.5714 11.9021 21.8546 12.156 22.0811C12.4099 22.3038 12.7361 22.4151 13.1345 22.4151ZM13.1345 18.5772C13.4705 18.5772 13.7478 18.4776 13.9666 18.2784C14.1853 18.0792 14.2947 17.8311 14.2947 17.5342C14.2947 17.2335 14.1853 16.9835 13.9666 16.7842C13.7478 16.585 13.4705 16.4854 13.1345 16.4854C12.8025 16.4854 12.5271 16.585 12.3083 16.7842C12.0896 16.9835 11.9802 17.2335 11.9802 17.5342C11.9802 17.8311 12.0896 18.0792 12.3083 18.2784C12.5271 18.4776 12.8025 18.5772 13.1345 18.5772ZM20.0076 20.1006V18.6182H21.033C21.3962 18.6182 21.6873 18.5264 21.906 18.3428C22.1248 18.1553 22.2341 17.9092 22.2341 17.6046C22.2341 17.296 22.1267 17.0538 21.9119 16.878C21.697 16.7022 21.3982 16.6143 21.0154 16.6143C20.6482 16.6143 20.3494 16.7159 20.1189 16.919C19.8884 17.1221 19.7673 17.3878 19.7556 17.7159H17.8103C17.8259 16.8995 18.1345 16.2452 18.7361 15.753C19.3376 15.2608 20.1287 15.0147 21.1091 15.0147C22.0505 15.0147 22.8044 15.2237 23.3708 15.6417C23.9412 16.0596 24.2263 16.6163 24.2263 17.3116C24.2263 17.8155 24.0642 18.2432 23.74 18.5948C23.4158 18.9464 22.9919 19.169 22.4685 19.2628V19.3096C23.1013 19.3682 23.6033 19.5772 23.9744 19.9366C24.3494 20.296 24.5369 20.7628 24.5369 21.337C24.5369 22.1104 24.2146 22.7296 23.5701 23.1944C22.9294 23.6592 22.0818 23.8917 21.0271 23.8917C20.0388 23.8917 19.238 23.6436 18.6248 23.1475C18.0154 22.6514 17.6892 21.9913 17.6462 21.1671H19.697C19.7166 21.4874 19.8474 21.7413 20.0896 21.9288C20.3318 22.1124 20.656 22.2042 21.0623 22.2042C21.4451 22.2042 21.7556 22.1085 21.9939 21.9171C22.2361 21.7217 22.3572 21.4678 22.3572 21.1553C22.3572 20.8272 22.24 20.5694 22.0056 20.3819C21.7712 20.1944 21.449 20.1006 21.0388 20.1006H20.0076ZM29.283 17.2706C29.283 17.962 29.1013 18.5089 28.738 18.9112C28.3787 19.3096 27.8904 19.5089 27.2732 19.5089C26.656 19.5089 26.1658 19.3096 25.8025 18.9112C25.4431 18.5089 25.2634 17.962 25.2634 17.2706C25.2634 16.5831 25.4431 16.0381 25.8025 15.6358C26.1658 15.2335 26.656 15.0323 27.2732 15.0323C27.8904 15.0323 28.3787 15.2335 28.738 15.6358C29.1013 16.0381 29.283 16.5831 29.283 17.2706ZM26.9041 18.0264C26.9939 18.21 27.1169 18.3018 27.2732 18.3018C27.4294 18.3018 27.5505 18.21 27.6365 18.0264C27.7263 17.8428 27.7712 17.587 27.7712 17.2589C27.7712 16.9307 27.7263 16.6749 27.6365 16.4913C27.5505 16.3077 27.4294 16.2159 27.2732 16.2159C27.1169 16.2159 26.9939 16.3077 26.9041 16.4913C26.8181 16.6749 26.7751 16.9307 26.7751 17.2589C26.7751 17.587 26.8181 17.8428 26.9041 18.0264ZM27.906 23.6807H26.2771L29.5701 19.169L32.4412 15.2256H34.0701L30.8708 19.6143L27.906 23.6807ZM35.0837 21.5772C35.0837 22.2686 34.9021 22.8155 34.5388 23.2178C34.1794 23.6163 33.6912 23.8155 33.074 23.8155C32.4568 23.8155 31.9666 23.6163 31.6033 23.2178C31.2439 22.8155 31.0642 22.2686 31.0642 21.5772C31.0642 20.8897 31.2439 20.3467 31.6033 19.9483C31.9666 19.546 32.4568 19.3448 33.074 19.3448C33.6912 19.3448 34.1794 19.546 34.5388 19.9483C34.9021 20.3467 35.0837 20.8897 35.0837 21.5772ZM32.7048 22.3331C32.7947 22.5167 32.9177 22.6085 33.074 22.6085C33.2302 22.6085 33.3513 22.5167 33.4373 22.3331C33.5271 22.1495 33.572 21.8936 33.572 21.5655C33.572 21.2374 33.5271 20.9815 33.4373 20.7979C33.3513 20.6143 33.2302 20.5225 33.074 20.5225C32.9177 20.5225 32.7947 20.6143 32.7048 20.7979C32.6189 20.9815 32.5759 21.2374 32.5759 21.5655C32.5759 21.8936 32.6189 22.1495 32.7048 22.3331Z" fill="white"/>
</g>
<defs>
<clipPath id="clip0_0_54">
<rect width="38" height="38" fill="white" transform="translate(0.693481)"/>
</clipPath>
</defs>
</svg>
