<svg width="133" height="162" viewBox="0 0 133 162" fill="none" xmlns="http://www.w3.org/2000/svg">
<path fill-rule="evenodd" clip-rule="evenodd" d="M108.993 2.34543e-05C103.641 2.86288 100 8.50625 100 15C100 24.3889 107.611 32 117 32C123.494 32 129.137 28.359 132 23.0071V143.002C132 153.494 123.494 162 113.002 162H19.9981C9.50574 162 1 153.494 1 143.002V18.9981C1 8.50577 9.50574 2.34543e-05 19.9981 2.34543e-05H108.993Z" fill="#495795" fill-opacity="0.1"/>
<path d="M108.993 2.34543e-05L109.229 0.440908L108.993 -0.499977V2.34543e-05ZM132 23.0071H132.5L131.559 22.7713L132 23.0071ZM100.5 15C100.5 8.69793 104.033 3.22024 109.229 0.440908L108.757 -0.440861C103.249 2.50551 99.5 8.31457 99.5 15H100.5ZM117 31.5C107.887 31.5 100.5 24.1127 100.5 15H99.5C99.5 24.665 107.335 32.5 117 32.5V31.5ZM131.559 22.7713C128.78 27.967 123.302 31.5 117 31.5V32.5C123.685 32.5 129.495 28.751 132.441 23.243L131.559 22.7713ZM131.5 23.0071V143.002H132.5V23.0071H131.5ZM131.5 143.002C131.5 153.218 123.218 161.5 113.002 161.5V162.5C123.77 162.5 132.5 153.77 132.5 143.002H131.5ZM113.002 161.5H19.9981V162.5H113.002V161.5ZM19.9981 161.5C9.78188 161.5 1.5 153.218 1.5 143.002H0.5C0.5 153.77 9.22959 162.5 19.9981 162.5V161.5ZM1.5 143.002V18.9981H0.5V143.002H1.5ZM1.5 18.9981C1.5 8.78191 9.78188 0.500023 19.9981 0.500023V-0.499977C9.2296 -0.499977 0.5 8.22963 0.5 18.9981H1.5ZM19.9981 0.500023H108.993V-0.499977H19.9981V0.500023Z" fill="#495795"/>
</svg>
